<?xml version="1.0" encoding="UTF-8"?>
<svg xmlns="http://www.w3.org/2000/svg" width="262" height="262" viewBox="0 0 262 262" fill="none">
  <rect x="0.5" y="0.5" width="261" height="261" rx="25.5" fill="white" stroke="#D9D9D9"></rect>
  <path d="M80.0518 217.264C78.4998 217.264 77.1718 216.872 76.0678 216.088C74.9638 215.288 74.1638 214.16 73.6678 212.704L75.9718 211.792C76.3718 212.864 76.9078 213.664 77.5798 214.192C78.2678 214.704 79.0918 214.96 80.0518 214.96C81.2998 214.96 82.2918 214.56 83.0278 213.76C83.7798 212.96 84.1558 211.888 84.1558 210.544V200.2H86.6758V210.592C86.6758 211.936 86.4038 213.112 85.8598 214.12C85.3158 215.112 84.5478 215.888 83.5558 216.448C82.5638 216.992 81.3958 217.264 80.0518 217.264ZM93.5923 217.216C92.7123 217.216 91.9363 217.064 91.2643 216.76C90.5923 216.44 90.0643 216 89.6803 215.44C89.2963 214.88 89.1043 214.232 89.1043 213.496C89.1043 212.344 89.5443 211.44 90.4243 210.784C91.3043 210.112 92.5123 209.776 94.0483 209.776C95.2483 209.776 96.3603 210.008 97.3843 210.472V209.176C97.3843 208.296 97.1283 207.64 96.6163 207.208C96.1203 206.776 95.3843 206.56 94.4083 206.56C93.8483 206.56 93.2643 206.648 92.6563 206.824C92.0483 206.984 91.3683 207.24 90.6163 207.592L89.7283 205.792C90.6563 205.36 91.5203 205.048 92.3203 204.856C93.1203 204.648 93.9283 204.544 94.7443 204.544C96.3283 204.544 97.5523 204.92 98.4163 205.672C99.2963 206.424 99.7363 207.496 99.7363 208.888V217H97.3843V215.944C96.8403 216.376 96.2563 216.696 95.6323 216.904C95.0083 217.112 94.3283 217.216 93.5923 217.216ZM91.4083 213.448C91.4083 214.04 91.6563 214.52 92.1523 214.888C92.6643 215.256 93.3283 215.44 94.1443 215.44C94.7843 215.44 95.3683 215.344 95.8963 215.152C96.4403 214.96 96.9363 214.664 97.3843 214.264V212.2C96.9203 211.928 96.4323 211.736 95.9203 211.624C95.4243 211.496 94.8643 211.432 94.2403 211.432C93.3603 211.432 92.6643 211.616 92.1523 211.984C91.6563 212.336 91.4083 212.824 91.4083 213.448ZM106.045 217L100.765 204.784H103.405L107.221 213.928L111.037 204.784H113.581L108.349 217H106.045ZM118.682 217.216C117.802 217.216 117.026 217.064 116.354 216.76C115.682 216.44 115.154 216 114.77 215.44C114.386 214.88 114.194 214.232 114.194 213.496C114.194 212.344 114.634 211.44 115.514 210.784C116.394 210.112 117.602 209.776 119.138 209.776C120.338 209.776 121.45 210.008 122.474 210.472V209.176C122.474 208.296 122.218 207.64 121.706 207.208C121.21 206.776 120.474 206.56 119.498 206.56C118.938 206.56 118.354 206.648 117.746 206.824C117.138 206.984 116.458 207.24 115.706 207.592L114.818 205.792C115.746 205.36 116.61 205.048 117.41 204.856C118.21 204.648 119.018 204.544 119.834 204.544C121.418 204.544 122.642 204.92 123.506 205.672C124.386 206.424 124.826 207.496 124.826 208.888V217H122.474V215.944C121.93 216.376 121.346 216.696 120.722 216.904C120.098 217.112 119.418 217.216 118.682 217.216ZM116.498 213.448C116.498 214.04 116.746 214.52 117.242 214.888C117.754 215.256 118.418 215.44 119.234 215.44C119.874 215.44 120.458 215.344 120.986 215.152C121.53 214.96 122.026 214.664 122.474 214.264V212.2C122.01 211.928 121.522 211.736 121.01 211.624C120.514 211.496 119.954 211.432 119.33 211.432C118.45 211.432 117.754 211.616 117.242 211.984C116.746 212.336 116.498 212.824 116.498 213.448ZM132.031 217.24C130.975 217.24 129.983 217.088 129.055 216.784C128.143 216.464 127.351 216.016 126.679 215.44L127.999 213.856C128.623 214.352 129.263 214.736 129.919 215.008C130.591 215.264 131.271 215.392 131.959 215.392C132.823 215.392 133.527 215.224 134.071 214.888C134.615 214.552 134.887 214.112 134.887 213.568C134.887 213.12 134.727 212.768 134.407 212.512C134.087 212.256 133.591 212.08 132.919 211.984L130.711 211.672C129.495 211.496 128.583 211.12 127.975 210.544C127.367 209.968 127.063 209.2 127.063 208.24C127.063 207.504 127.263 206.864 127.663 206.32C128.063 205.76 128.623 205.328 129.343 205.024C130.063 204.704 130.903 204.544 131.863 204.544C132.743 204.544 133.591 204.672 134.407 204.928C135.223 205.184 136.007 205.584 136.759 206.128L135.535 207.712C134.863 207.264 134.207 206.936 133.567 206.728C132.943 206.52 132.311 206.416 131.671 206.416C130.935 206.416 130.343 206.576 129.895 206.896C129.447 207.2 129.223 207.6 129.223 208.096C129.223 208.544 129.375 208.896 129.679 209.152C129.999 209.392 130.519 209.56 131.239 209.656L133.447 209.968C134.663 210.144 135.583 210.52 136.207 211.096C136.831 211.656 137.143 212.416 137.143 213.376C137.143 214.112 136.919 214.776 136.471 215.368C136.023 215.944 135.415 216.4 134.647 216.736C133.879 217.072 133.007 217.24 132.031 217.24ZM145.081 217.216C143.913 217.216 142.849 216.936 141.889 216.376C140.929 215.816 140.169 215.056 139.609 214.096C139.065 213.136 138.793 212.064 138.793 210.88C138.793 209.696 139.073 208.632 139.633 207.688C140.193 206.728 140.945 205.968 141.889 205.408C142.849 204.832 143.913 204.544 145.081 204.544C146.009 204.544 146.897 204.72 147.745 205.072C148.609 205.424 149.353 205.92 149.977 206.56L148.489 208.216C148.025 207.704 147.505 207.32 146.929 207.064C146.353 206.808 145.753 206.68 145.129 206.68C144.393 206.68 143.721 206.864 143.113 207.232C142.521 207.6 142.049 208.104 141.697 208.744C141.345 209.384 141.169 210.096 141.169 210.88C141.169 211.664 141.345 212.376 141.697 213.016C142.049 213.656 142.529 214.168 143.137 214.552C143.745 214.92 144.425 215.104 145.177 215.104C145.801 215.104 146.385 214.984 146.929 214.744C147.473 214.488 147.985 214.12 148.465 213.64L149.929 215.176C149.289 215.832 148.545 216.336 147.697 216.688C146.865 217.04 145.993 217.216 145.081 217.216ZM152.1 217V204.784H154.5V206.344C154.884 205.768 155.356 205.32 155.916 205C156.492 204.664 157.14 204.496 157.86 204.496C158.356 204.512 158.764 204.584 159.084 204.712V206.872C158.86 206.776 158.628 206.712 158.388 206.68C158.148 206.632 157.908 206.608 157.668 206.608C156.964 206.608 156.34 206.8 155.796 207.184C155.252 207.552 154.82 208.096 154.5 208.816V217H152.1ZM161.246 217V204.784H163.646V217H161.246ZM162.446 202.816C162.046 202.816 161.702 202.672 161.414 202.384C161.126 202.08 160.982 201.728 160.982 201.328C160.982 200.912 161.126 200.568 161.414 200.296C161.702 200.008 162.046 199.864 162.446 199.864C162.862 199.864 163.214 200.008 163.502 200.296C163.79 200.568 163.934 200.912 163.934 201.328C163.934 201.728 163.79 202.08 163.502 202.384C163.214 202.672 162.862 202.816 162.446 202.816ZM166.713 221.896V204.784H169.089V205.96C170.113 205.048 171.361 204.592 172.833 204.592C173.985 204.592 175.025 204.872 175.953 205.432C176.897 205.992 177.641 206.744 178.185 207.688C178.729 208.632 179.001 209.696 179.001 210.88C179.001 212.064 178.721 213.136 178.161 214.096C177.617 215.04 176.873 215.792 175.929 216.352C175.001 216.912 173.953 217.192 172.785 217.192C172.113 217.192 171.465 217.088 170.841 216.88C170.217 216.656 169.641 216.344 169.113 215.944V221.896H166.713ZM172.521 215.104C173.305 215.104 174.001 214.92 174.609 214.552C175.233 214.184 175.729 213.688 176.097 213.064C176.465 212.424 176.649 211.704 176.649 210.904C176.649 210.104 176.465 209.384 176.097 208.744C175.729 208.104 175.233 207.6 174.609 207.232C174.001 206.864 173.305 206.68 172.521 206.68C171.833 206.68 171.193 206.808 170.601 207.064C170.009 207.32 169.513 207.68 169.113 208.144V213.664C169.513 214.112 170.009 214.464 170.601 214.72C171.209 214.976 171.849 215.104 172.521 215.104ZM186.06 217.216C184.876 217.216 183.972 216.944 183.348 216.4C182.724 215.84 182.412 215.032 182.412 213.976V206.8H179.82V204.784H182.412V201.664L184.788 201.088V204.784H188.388V206.8H184.788V213.424C184.788 214.048 184.924 214.496 185.196 214.768C185.484 215.024 185.948 215.152 186.588 215.152C186.924 215.152 187.22 215.128 187.476 215.08C187.748 215.032 188.036 214.96 188.34 214.864V216.88C188.02 216.992 187.644 217.072 187.212 217.12C186.796 217.184 186.412 217.216 186.06 217.216Z" fill="#2E2E2E"></path>
  <mask id="mask0_2534_1504" style="mask-type:alpha" maskUnits="userSpaceOnUse" x="73" y="41" width="116" height="116">
    <rect x="73" y="41" width="116" height="116" fill="#D9D9D9"></rect>
  </mask>
  <g mask="url(#mask0_2534_1504)">
    <g clip-path="url(#clip0_2534_1504)">
      <path d="M89.7019 144.849L81.2204 41.1942L182.512 41.4025L173.543 144.849L132.248 156.807L89.7019 144.849Z" fill="#E9CA32"></path>
      <path d="M132.249 146.794V51.064L173.961 51.2029L166.523 136.852L132.249 146.794Z" fill="#FFDE25"></path>
      <path d="M127.782 62.431H116.755V126.146L108.178 124.513V115.936L97.9669 114.302V133.498L127.782 141.258V62.431ZM136.055 62.431H166.584L164.541 74.6431H147.709V94.6833H164.541L162.499 135.132L136.055 141.258V128.597L153.922 122.471L154.954 105.725L136.055 108.461V62.431Z" fill="white"></path>
    </g>
  </g>
  <defs>
    <clipPath id="clip0_2534_1504">
      <rect width="101.291" height="116" fill="white" transform="translate(81.2205 41)"></rect>
    </clipPath>
  </defs>
</svg>
